<?xml version="1.0" standalone="no"?><!DOCTYPE svg PUBLIC "-//W3C//DTD SVG 1.1//EN" "http://www.w3.org/Graphics/SVG/1.1/DTD/svg11.dtd"><svg t="1675838754294" class="icon" viewBox="0 0 1024 1024" version="1.1" xmlns="http://www.w3.org/2000/svg" p-id="2437" xmlns:xlink="http://www.w3.org/1999/xlink" width="200" height="200"><path d="M555.885714 468.114286h380.342857v87.771428H555.885714v380.342857h-87.771428V87.771429h87.771428v380.342857zM117.028571 0h789.942858a117.028571 117.028571 0 0 1 117.028571 117.028571v789.942858a117.028571 117.028571 0 0 1-117.028571 117.028571H117.028571a117.028571 117.028571 0 0 1-117.028571-117.028571V117.028571a117.028571 117.028571 0 0 1 117.028571-117.028571z m0 87.771429a29.257143 29.257143 0 0 0-29.257142 29.257142v789.942858a29.257143 29.257143 0 0 0 29.257142 29.257142h789.942858a29.257143 29.257143 0 0 0 29.257142-29.257142V117.028571a29.257143 29.257143 0 0 0-29.257142-29.257142H117.028571z" fill="#ffffff" p-id="2438"></path></svg>